<?xml version="1.0" encoding="utf-8"?>
<!-- Generator: Adobe Illustrator 15.1.0, SVG Export Plug-In . SVG Version: 6.00 Build 0)  -->
<!DOCTYPE svg PUBLIC "-//W3C//DTD SVG 1.1//EN" "http://www.w3.org/Graphics/SVG/1.1/DTD/svg11.dtd">
<svg version="1.1" id="Layer_1" xmlns="http://www.w3.org/2000/svg" xmlns:xlink="http://www.w3.org/1999/xlink" x="0px" y="0px"
	 width="14.172px" height="14.172px" viewBox="0 0 14.172 14.172" enable-background="new 0 0 14.172 14.172" xml:space="preserve">
<path fill="#2EF719" d="M12.512,7.171c0,1.375-0.451,2.448-1.355,3.218C10.3,11.115,9.172,11.48,7.771,11.48
	c-1.393,0-2.517-0.365-3.373-1.092C3.487,9.618,3.031,8.546,3.031,7.171h0.864c0,1.127,0.372,1.997,1.116,2.604
	c0.688,0.567,1.608,0.852,2.76,0.852c1.151,0,2.071-0.283,2.76-0.852c0.744-0.607,1.115-1.478,1.115-2.604H12.512z M6.296,2.684
	C6.136,2.228,5.907,2,5.611,2C5.323,2,5.1,2.228,4.939,2.684c-0.12,0.344-0.18,0.692-0.18,1.044c0,0.36,0.06,0.708,0.18,1.044
	c0.168,0.456,0.392,0.684,0.672,0.684c0.296,0,0.524-0.228,0.685-0.684c0.12-0.336,0.18-0.684,0.18-1.044S6.416,3.02,6.296,2.684z
	 M10.604,2.684C10.443,2.228,10.221,2,9.932,2C9.645,2,9.416,2.228,9.248,2.684C9.128,3.02,9.066,3.368,9.066,3.728
	s0.062,0.708,0.182,1.044c0.168,0.456,0.396,0.684,0.684,0.684c0.289,0,0.512-0.228,0.672-0.684
	c0.121-0.336,0.181-0.684,0.181-1.044C10.783,3.376,10.725,3.028,10.604,2.684z"/>
</svg>
