<?xml version="1.0" encoding="utf-8"?>
<!-- Generator: Adobe Illustrator 15.1.0, SVG Export Plug-In . SVG Version: 6.00 Build 0)  -->
<!DOCTYPE svg PUBLIC "-//W3C//DTD SVG 1.1//EN" "http://www.w3.org/Graphics/SVG/1.1/DTD/svg11.dtd">
<svg version="1.1" id="Layer_1" xmlns="http://www.w3.org/2000/svg" xmlns:xlink="http://www.w3.org/1999/xlink" x="0px" y="0px"
	 width="14.172px" height="14.172px" viewBox="0 0 14.172 14.172" enable-background="new 0 0 14.172 14.172" xml:space="preserve">
<g>
	<path d="M12.029,8.953c-0.42,0.462-1.415,0.812-2.984,1.051c-1.106,0.168-2.234,0.252-3.383,0.252c-2.368,0-3.551-0.68-3.551-2.038
		c0-1.668,1.232-3.097,3.699-4.288C6.663,3.51,7.553,3.167,8.478,2.9c0.896,0.21,1.492,0.365,1.786,0.462
		c0.631,0.21,0.946,0.735,0.946,1.577c0,0.742-0.477,1.331-1.429,1.765C8.982,7.068,8.17,7.251,7.343,7.251
		c-1.289,0-2.213-0.196-2.774-0.589C3.868,6.998,3.518,7.433,3.518,7.965c0,0.939,0.854,1.408,2.564,1.408
		c0.63,0,1.366-0.042,2.207-0.126C10.264,9.051,11.511,8.953,12.029,8.953z M9.865,4.918C9.444,4.47,8.933,4.246,8.331,4.246
		c-0.435,0-0.827,0.091-1.177,0.273C7.14,4.533,6.783,4.729,6.082,5.107c0.42,0.672,0.995,1.009,1.724,1.009
		C8.632,6.116,9.318,5.717,9.865,4.918z"/>
</g>
</svg>
