<?xml version="1.0" encoding="utf-8"?>
<!-- Generator: Adobe Illustrator 15.1.0, SVG Export Plug-In . SVG Version: 6.00 Build 0)  -->
<!DOCTYPE svg PUBLIC "-//W3C//DTD SVG 1.1//EN" "http://www.w3.org/Graphics/SVG/1.1/DTD/svg11.dtd">
<svg version="1.1" id="Layer_1" xmlns="http://www.w3.org/2000/svg" xmlns:xlink="http://www.w3.org/1999/xlink" x="0px" y="0px"
	 width="14.172px" height="14.172px" viewBox="0 0 14.172 14.172" enable-background="new 0 0 14.172 14.172" xml:space="preserve">
<g>
	<path d="M11.658,8.733c0,0.312-0.129,0.576-0.385,0.792l-1.896,1.549c-0.207,0.168-0.436,0.252-0.684,0.252
		c-0.385,0-0.676-0.172-0.877-0.517L6.484,8.518C6.43,8.422,6.4,8.313,6.4,8.193c0-0.304,0.133-0.564,0.396-0.78l0.385-0.312
		L6.209,5.926c-0.271,0.064-0.488,0-0.648-0.192L3.341,3.045c-0.088-0.112-0.132-0.24-0.132-0.384c0-0.232,0.096-0.428,0.288-0.588
		c0.152-0.128,0.32-0.192,0.504-0.192c0.199,0,0.355,0.072,0.467,0.216l2.221,2.688C6.777,4.89,6.822,5.014,6.822,5.158
		c0,0.112-0.025,0.216-0.072,0.312l0.971,1.188l0.373-0.3c0.215-0.176,0.447-0.264,0.695-0.264c0.191,0,0.348,0.052,0.469,0.156
		l2.039,1.716C11.537,8.174,11.658,8.43,11.658,8.733z M4.301,2.709c0-0.208-0.1-0.312-0.299-0.312
		c-0.201,0-0.301,0.104-0.301,0.312c0,0.2,0.1,0.3,0.301,0.3C4.201,3.01,4.301,2.91,4.301,2.709z M8.826,10.113
		c0-0.096-0.025-0.18-0.072-0.252L7.422,8.002C7.334,7.873,7.221,7.865,7.086,7.978C6.957,8.09,6.934,8.21,7.014,8.338l1.236,1.943
		c0.072,0.112,0.168,0.168,0.287,0.168C8.729,10.449,8.826,10.338,8.826,10.113z M9.797,9.31c0-0.096-0.031-0.181-0.096-0.252
		l-1.5-1.716C8.098,7.222,7.98,7.218,7.854,7.33C7.717,7.442,7.697,7.558,7.793,7.678l1.404,1.8c0.08,0.097,0.18,0.144,0.301,0.144
		C9.697,9.621,9.797,9.518,9.797,9.31z M10.805,8.518c0-0.096-0.039-0.184-0.119-0.264L9.029,6.682
		c-0.119-0.112-0.244-0.112-0.371,0C8.521,6.794,8.51,6.906,8.621,7.018l1.561,1.656c0.08,0.096,0.18,0.144,0.299,0.144
		C10.697,8.817,10.805,8.718,10.805,8.518z"/>
</g>
</svg>
