<?xml version="1.0" encoding="utf-8"?>
<!-- Generator: Adobe Illustrator 15.1.0, SVG Export Plug-In . SVG Version: 6.00 Build 0)  -->
<!DOCTYPE svg PUBLIC "-//W3C//DTD SVG 1.1//EN" "http://www.w3.org/Graphics/SVG/1.1/DTD/svg11.dtd">
<svg version="1.1" id="Layer_1" xmlns="http://www.w3.org/2000/svg" xmlns:xlink="http://www.w3.org/1999/xlink" x="0px" y="0px"
	 width="14.172px" height="14.172px" viewBox="0 0 14.172 14.172" enable-background="new 0 0 14.172 14.172" xml:space="preserve">
<g>
	<path d="M1.384,12.445c0.016-0.029,0.028-0.049,0.036-0.057c0.016-0.016,0.048-0.05,0.096-0.102
		c0.048-0.053,0.102-0.107,0.162-0.168c0.06-0.061,0.117-0.118,0.174-0.174c0.056-0.057,0.096-0.096,0.12-0.12
		c0.016-0.016,0.058-0.054,0.126-0.114c0.068-0.06,0.141-0.123,0.217-0.191c0.074-0.068,0.146-0.132,0.215-0.191
		c0.068-0.061,0.109-0.098,0.127-0.113c0.008-0.009,0.035-0.039,0.084-0.09c0.047-0.053,0.08-0.082,0.096-0.091
		c0.008-0.008,0.025-0.024,0.053-0.048c0.029-0.023,0.061-0.05,0.098-0.078c0.035-0.027,0.068-0.054,0.102-0.078
		c0.031-0.023,0.051-0.039,0.061-0.047c0.008-0.008,0.031-0.035,0.07-0.078c0.041-0.044,0.084-0.09,0.133-0.139
		c0.049-0.047,0.094-0.092,0.139-0.131c0.043-0.041,0.068-0.068,0.078-0.084c0.016-0.008,0.057-0.036,0.125-0.084
		c0.068-0.049,0.109-0.08,0.127-0.096c0.016-0.017,0.055-0.055,0.119-0.114s0.104-0.103,0.119-0.126
		c0.025-0.023,0.059-0.062,0.104-0.113c0.043-0.053,0.092-0.106,0.143-0.162C4.358,9.6,4.409,9.547,4.456,9.494
		c0.049-0.052,0.08-0.09,0.096-0.113C4.559,9.373,4.577,9.353,4.6,9.32c0.023-0.031,0.049-0.066,0.078-0.102
		C4.706,9.183,4.733,9.15,4.756,9.123C4.78,9.095,4.795,9.076,4.803,9.068c0-0.008,0.021-0.027,0.061-0.06v-0.06V8.889
		C4.856,8.873,4.836,8.842,4.803,8.793c-0.031-0.048-0.051-0.08-0.059-0.096c-0.018-0.016-0.041-0.057-0.072-0.12
		C4.639,8.514,4.62,8.474,4.612,8.457C4.596,8.426,4.575,8.359,4.545,8.26C4.518,8.16,4.5,8.102,4.493,8.086v-0.18
		c0-0.016-0.012-0.068-0.031-0.156S4.432,7.61,4.432,7.595V7.379V7.163c0-0.008,0.008-0.042,0.023-0.102s0.029-0.106,0.037-0.138
		C4.5,6.899,4.512,6.865,4.528,6.822c0.016-0.044,0.023-0.074,0.023-0.09C4.569,6.692,4.6,6.626,4.649,6.534
		c0.047-0.092,0.078-0.146,0.096-0.162C4.76,6.348,4.79,6.304,4.834,6.24c0.043-0.064,0.074-0.104,0.09-0.12
		C4.94,6.104,4.965,6.079,5.002,6.042C5.038,6.006,5.075,5.969,5.11,5.929c0.037-0.04,0.072-0.076,0.107-0.108
		C5.254,5.789,5.28,5.765,5.295,5.749c0.008,0,0.029-0.008,0.061-0.024s0.053-0.028,0.061-0.036c0.008,0,0.027-0.02,0.059-0.06
		c0.041-0.024,0.1-0.058,0.176-0.102c0.074-0.044,0.121-0.07,0.137-0.078c0.008-0.008,0.029-0.01,0.061-0.006
		s0.053,0.006,0.061,0.006c0.008-0.008,0.027-0.02,0.059-0.036C6,5.397,6.02,5.389,6.028,5.389c0.016-0.008,0.049-0.02,0.096-0.036
		c0.049-0.016,0.08-0.028,0.096-0.036c0.018,0,0.064-0.008,0.145-0.024S6.497,5.266,6.52,5.257c0.031,0,0.102-0.008,0.211-0.024
		c0.107-0.016,0.182-0.028,0.221-0.036h0.037h0.023c0.016,0.008,0.068,0.02,0.156,0.036s0.139,0.024,0.156,0.024
		c0.023,0.008,0.068,0.014,0.137,0.018C7.53,5.28,7.577,5.281,7.6,5.281c0.008,0.024,0.016,0.036,0.023,0.036
		c0.016,0.008,0.049,0.02,0.096,0.036c0.049,0.016,0.08,0.028,0.098,0.036l0.059,0.06c0.008,0,0.029-0.002,0.061-0.006
		s0.053-0.002,0.061,0.006c0.016,0.008,0.066,0.038,0.156,0.09c0.088,0.052,0.139,0.082,0.154,0.09
		C8.34,5.637,8.359,5.641,8.367,5.641s0.027-0.004,0.061-0.012c0.008-0.008,0.023-0.024,0.047-0.048
		C8.5,5.557,8.525,5.531,8.553,5.503c0.029-0.028,0.055-0.054,0.078-0.078C8.656,5.401,8.672,5.389,8.68,5.389
		c0.008-0.016,0.045-0.048,0.113-0.096s0.111-0.08,0.127-0.096l0.984-0.982C9.92,4.199,9.951,4.169,10,4.125
		c0.047-0.044,0.102-0.092,0.162-0.144c0.059-0.052,0.117-0.102,0.174-0.149c0.055-0.048,0.096-0.084,0.119-0.108
		c0.016-0.008,0.059-0.036,0.127-0.083c0.066-0.048,0.109-0.08,0.125-0.096c0.008-0.008,0.037-0.038,0.084-0.09
		c0.049-0.052,0.08-0.082,0.096-0.09c0.008-0.008,0.029-0.02,0.061-0.036C10.979,3.312,11,3.3,11.008,3.292
		c0.016-0.008,0.049-0.04,0.102-0.096c0.053-0.056,0.109-0.114,0.174-0.174c0.064-0.06,0.123-0.118,0.174-0.174
		c0.053-0.056,0.086-0.092,0.102-0.108c0.018-0.008,0.039-0.02,0.066-0.036c0.029-0.016,0.051-0.024,0.066-0.024
		s0.047,0.008,0.09,0.024c0.045,0.016,0.074,0.028,0.09,0.036v0.036v0.024c-0.008,0.016-0.027,0.048-0.061,0.096
		c-0.031,0.048-0.051,0.08-0.059,0.096c-0.041,0.048-0.1,0.11-0.18,0.186s-0.125,0.114-0.133,0.114h-0.061
		c-0.016,0.024-0.045,0.068-0.09,0.132c-0.043,0.064-0.074,0.104-0.09,0.12c-0.016,0.016-0.039,0.038-0.072,0.066
		c-0.031,0.028-0.051,0.046-0.059,0.054c0,0.008-0.01,0.012-0.025,0.012s-0.027-0.004-0.035-0.012l-0.553,0.552v-0.06
		c-0.023,0.024-0.064,0.066-0.119,0.126c-0.057,0.06-0.117,0.122-0.18,0.186c-0.064,0.064-0.127,0.124-0.188,0.18
		C9.91,4.705,9.867,4.745,9.844,4.769C9.828,4.785,9.785,4.816,9.717,4.865C9.65,4.913,9.607,4.945,9.592,4.96
		c0,0.008-0.008,0.028-0.023,0.06c-0.018,0.032-0.029,0.052-0.037,0.06c-0.008,0.008-0.031,0-0.072-0.024
		c0,0.008,0.004,0.022,0.012,0.042s0.008,0.034,0,0.042c-0.008,0.008-0.025,0.028-0.053,0.06c-0.029,0.032-0.051,0.052-0.066,0.06
		s-0.049,0.028-0.096,0.06C9.207,5.353,9.18,5.376,9.172,5.393c-0.008,0-0.012,0.008-0.012,0.024c0,0.016,0.004,0.028,0.012,0.036
		C9.156,5.469,9.125,5.5,9.082,5.549c-0.045,0.048-0.088,0.098-0.133,0.15c-0.043,0.052-0.086,0.102-0.125,0.15
		C8.783,5.896,8.756,5.929,8.74,5.945c-0.008,0.008-0.021,0.018-0.037,0.03S8.68,5.997,8.68,6.004
		c0.088,0.072,0.164,0.164,0.229,0.276c0.062,0.112,0.107,0.224,0.131,0.336v0.06c0.008,0.016,0.02,0.048,0.037,0.096
		C9.092,6.821,9.1,6.853,9.1,6.869c0.008,0,0.01,0.008,0.006,0.024S9.1,6.921,9.1,6.929c0.008,0.008,0.02,0.036,0.035,0.084
		c0.018,0.048,0.029,0.08,0.037,0.096v0.396v0.408C9.164,7.945,9.154,8.007,9.141,8.099C9.129,8.191,9.115,8.248,9.1,8.272
		c0,0.017-0.018,0.058-0.055,0.126C9.01,8.467,8.988,8.509,8.98,8.524v0.06c0,0.009-0.01,0.029-0.025,0.061
		C8.939,8.677,8.928,8.697,8.92,8.705c0,0.008-0.02,0.027-0.061,0.06C8.852,8.781,8.832,8.822,8.799,8.891
		C8.768,8.959,8.748,9,8.74,9.017c-0.008,0-0.021,0.009-0.037,0.024S8.68,9.068,8.68,9.076c-0.008,0.008-0.02,0.039-0.037,0.09
		C8.627,9.219,8.615,9.248,8.607,9.257c0,0.008-0.008,0.01-0.023,0.006S8.555,9.257,8.547,9.257c0,0.008-0.008,0.021-0.023,0.036
		S8.496,9.316,8.488,9.316c-0.01,0.016-0.039,0.041-0.09,0.072C8.346,9.421,8.314,9.441,8.307,9.449L8.188,9.568
		C8.172,9.585,8.139,9.606,8.092,9.635c-0.049,0.027-0.08,0.046-0.096,0.054c-0.008,0.009-0.037,0.019-0.084,0.03
		C7.863,9.73,7.832,9.74,7.816,9.748H7.756C7.748,9.757,7.727,9.769,7.695,9.785C7.664,9.801,7.639,9.809,7.623,9.809
		c-0.016,0.016-0.044,0.03-0.089,0.042c-0.043,0.013-0.074,0.022-0.09,0.03C7.413,9.889,7.35,9.898,7.258,9.91
		C7.167,9.923,7.104,9.933,7.073,9.94H6.952H6.833c-0.018-0.008-0.068-0.02-0.156-0.036C6.588,9.889,6.536,9.881,6.52,9.881
		c-0.008-0.008-0.037-0.01-0.09-0.006S6.348,9.881,6.34,9.881c-0.008-0.008-0.037-0.018-0.084-0.03
		c-0.049-0.012-0.08-0.026-0.096-0.042c-0.018,0-0.041-0.008-0.072-0.023C6.055,9.769,6.036,9.757,6.028,9.748
		C6.02,9.748,6,9.75,5.967,9.754C5.936,9.759,5.917,9.757,5.909,9.748c-0.008,0-0.027-0.008-0.055-0.023S5.803,9.697,5.788,9.688
		c-0.008,0-0.027-0.02-0.061-0.06C5.711,9.621,5.67,9.601,5.602,9.568c-0.068-0.031-0.109-0.052-0.127-0.06
		c-0.008-0.008-0.027-0.03-0.059-0.066C5.383,9.406,5.364,9.389,5.356,9.389c-0.008-0.008-0.041-0.02-0.102-0.036
		c-0.061-0.016-0.111-0.028-0.15-0.036H5.081H5.043l-0.791,0.805H4.192l-0.863,0.863c-0.008,0.008-0.027,0.024-0.055,0.049
		c-0.027,0.023-0.061,0.047-0.096,0.071c-0.037,0.024-0.07,0.048-0.102,0.072c-0.033,0.024-0.053,0.04-0.061,0.048L1.6,12.641
		c-0.008,0-0.022,0-0.042,0c-0.02,0-0.034,0-0.042,0c-0.016,0-0.048,0-0.096,0c-0.008-0.008-0.02-0.027-0.036-0.057
		S1.36,12.531,1.36,12.515S1.368,12.475,1.384,12.445z M2.081,11.537c0,0.039-0.018,0.06-0.049,0.06s-0.048-0.021-0.048-0.06
		c0-0.041,0.017-0.061,0.048-0.061S2.081,11.496,2.081,11.537z M2.043,12.089c0,0.04,0.016,0.06,0.049,0.06
		c0.039,0,0.061-0.02,0.061-0.06s-0.021-0.06-0.061-0.06C2.059,12.029,2.043,12.049,2.043,12.089z M4.672,6.185
		c0,0.04-0.02,0.06-0.061,0.06c-0.031,0-0.047-0.02-0.047-0.06s0.016-0.06,0.047-0.06C4.653,6.125,4.672,6.145,4.672,6.185z
		 M4.672,8.645c0,0.04-0.02,0.061-0.061,0.061c-0.031,0-0.047-0.021-0.047-0.061s0.016-0.061,0.047-0.061
		C4.653,8.584,4.672,8.604,4.672,8.645z M4.852,6.185c0,0.04-0.016,0.06-0.049,0.06c-0.031,0-0.047-0.02-0.047-0.06
		s0.016-0.06,0.047-0.06C4.836,6.125,4.852,6.145,4.852,6.185z M11.512,3.113c0,0.04,0.016,0.06,0.047,0.06
		c0.033,0,0.049-0.02,0.049-0.06s-0.016-0.06-0.049-0.06C11.527,3.053,11.512,3.073,11.512,3.113z M11.92,2.933
		c0,0.04-0.016,0.06-0.049,0.06c-0.031,0-0.047-0.02-0.047-0.06s0.016-0.06,0.047-0.06C11.904,2.873,11.92,2.893,11.92,2.933z"/>
</g>
</svg>
