<?xml version="1.0" encoding="utf-8"?>
<!-- Generator: Adobe Illustrator 15.1.0, SVG Export Plug-In . SVG Version: 6.00 Build 0)  -->
<!DOCTYPE svg PUBLIC "-//W3C//DTD SVG 1.1//EN" "http://www.w3.org/Graphics/SVG/1.1/DTD/svg11.dtd">
<svg version="1.1" id="Layer_1" xmlns="http://www.w3.org/2000/svg" xmlns:xlink="http://www.w3.org/1999/xlink" x="0px" y="0px"
	 width="14.172px" height="14.172px" viewBox="0 0 14.172 14.172" enable-background="new 0 0 14.172 14.172" xml:space="preserve">
<g>
	<path d="M10.734,0.936c-0.129,0.573-0.48,1.22-1.053,1.94c-0.295,0.36-0.822,1.007-1.58,1.94c-0.583,0.712-0.924,1.322-1.026,1.83
		l1.831,0.36c0.812,0.268,1.219,0.688,1.219,1.261c0,0.814-0.711,1.65-2.135,2.51c-1.302,0.775-2.384,1.164-3.243,1.164
		c-0.342,0-1.091-0.213-2.246-0.638v-0.263c0-0.139,0.088-0.314,0.263-0.527C3.098,10.107,3.546,9.576,4.11,8.92l1.372-1.594
		c0.591-0.684,0.998-1.164,1.22-1.441C7.154,5.33,7.51,4.817,7.77,4.346c0.25-0.443,0.697-1.243,1.344-2.398
		C9.502,1.273,10.043,0.936,10.734,0.936z M9.363,8.311c0-0.324-0.203-0.56-0.609-0.707C8.457,7.492,8.115,7.437,7.729,7.437
		c-0.879,0-1.692,0.333-2.44,0.998C4.54,9.1,4.165,9.867,4.165,10.735c0,0.397,0.208,0.597,0.624,0.597
		c0.702,0,1.612-0.328,2.73-0.984C8.748,9.627,9.363,8.947,9.363,8.311z"/>
</g>
</svg>
